# xmcd
#
# Track frame offsets:
# 150
# 16765
# 29502
# 46365
# 63272
# 76095
# 90417
# 104907
# 121190
# 137477
# 153102
# 164562
#
# Disc length: 2420 seconds
#
#
# Revision: 2
# Processed by: cddbd v1.4PL0 Copyright (c) Steve Scherf et al.
# Submitted via: FreeRIP 2.35 
#
DISCID=8c09720c
DTITLE=Caballo Dorado - No Rompas Mi Corazon
DYEAR=1997
DGENRE=Other
TTITLE0=No Rompas Mi Corazon
TTITLE1=Arriba Y Abajo
TTITLE2=Carretera 54
TTITLE3=Rock Del Angel
TTITLE4=Corazon Vanidoso
TTITLE5=Siempre Te Amare
TTITLE6=Mucho Mejor
TTITLE7=Reina Morena
TTITLE8=El Cruel
TTITLE9=Chiquilla Escandalosa
TTITLE10=Mi Dulce Amor
TTITLE11=No Quiero Que Me Lastimes
EXTD=
EXTT0=
EXTT1=
EXTT2=
EXTT3=
EXTT4=
EXTT5=
EXTT6=
EXTT7=
EXTT8=
EXTT9=
EXTT10=
EXTT11=
PLAYORDER=
